<svg width="14" height="24" viewBox="0 0 14 24" fill="none" xmlns="http://www.w3.org/2000/svg">
<path d="M8.41182 23.3648H4.83353C4.23585 23.3648 3.74965 22.8721 3.74965 22.2663V14.086H1.66201C1.06432 14.086 0.578125 13.5931 0.578125 12.9875V9.48221C0.578125 8.87643 1.06432 8.38365 1.66201 8.38365H3.74965V6.62835C3.74965 4.8879 4.28887 3.40715 5.30882 2.34643C6.33338 1.28087 7.7652 0.717773 9.4495 0.717773L12.1785 0.722266C12.7751 0.723303 13.2605 1.21608 13.2605 1.82082V5.07537C13.2605 5.68115 12.7745 6.17393 12.1769 6.17393L10.3396 6.17462C9.7792 6.17462 9.63651 6.28848 9.606 6.32338C9.55571 6.38127 9.49587 6.54489 9.49587 6.99672V8.38348H12.0389C12.2303 8.38348 12.4158 8.43134 12.5752 8.52153C12.919 8.71626 13.1328 9.08446 13.1328 9.48238L13.1314 12.9876C13.1314 13.5931 12.6452 14.0858 12.0475 14.0858H9.49587V22.2663C9.49587 22.8721 9.0095 23.3648 8.41182 23.3648Z" fill="#FFEE00"/>
</svg>
