<svg width="138" height="62" viewBox="0 0 138 62" fill="none" xmlns="http://www.w3.org/2000/svg">
<g clip-path="url(#clip0_2_31)">
<path d="M4.48905 49.7549C4.01724 49.7549 3.33036 49.8722 3.33036 50.9342V51.6307H4.87065V53.0927H3.33036V58.5803H1.40846V53.0927H0V51.6307H1.40846V50.9342C1.40846 48.6929 2.66429 48.2378 4.48905 48.2378H4.87065V49.7549H4.48905Z" fill="white"/>
<path d="M12.869 55.4851H7.55605C7.64625 56.6091 8.41639 57.2229 9.40856 57.2229C10.144 57.2229 10.6991 56.8919 10.9697 56.2574L12.7459 56.4988C12.2879 57.9194 11.0182 58.7194 9.4155 58.7194C7.11894 58.7194 5.65497 57.3539 5.65497 55.1058C5.65497 52.8576 7.16057 51.4922 9.35305 51.4922C11.3721 51.4922 12.8777 52.6369 12.8916 55.0437L12.869 55.4851ZM7.63237 54.1748H10.9697C10.8101 53.3748 10.1787 52.9059 9.36693 52.9059C8.45802 52.9059 7.84745 53.3266 7.63237 54.1748Z" fill="white"/>
<path d="M21.2855 55.4851H15.9726C16.0628 56.6091 16.8329 57.2229 17.8251 57.2229C18.5605 57.2229 19.1156 56.8919 19.3862 56.2574L21.1624 56.4988C20.7044 57.9194 19.4347 58.7194 17.832 58.7194C15.5354 58.7194 14.0715 57.3539 14.0715 55.1058C14.0715 52.8576 15.5771 51.4922 17.7696 51.4922C19.7886 51.4922 21.2942 52.6369 21.3081 55.0437L21.2855 55.4851ZM16.0489 54.1748H19.3862C19.2266 53.3748 18.5952 52.9059 17.7834 52.9059C16.8745 52.9059 16.264 53.3266 16.0489 54.1748Z" fill="white"/>
<path d="M22.7996 58.5823V48.2397H24.7215V58.5823H22.7996Z" fill="white"/>
<path d="M26.3438 49.452C26.3438 48.8451 26.8503 48.3555 27.4678 48.3555C28.0645 48.3555 28.571 48.8451 28.571 49.452C28.571 50.0657 28.0645 50.5622 27.4678 50.5622C26.8503 50.5622 26.3438 50.0657 26.3438 49.452ZM26.5034 58.5825V51.6329H28.4253V58.5825H26.5034Z" fill="white"/>
<path d="M37.0065 53.9337V58.5817H35.0846V54.3267C35.0846 53.4027 34.5087 53.0096 33.7386 53.0096C32.9407 53.0096 32.233 53.4164 32.1289 54.5336V58.5817H30.207V51.6321H32.1289V52.4182C32.6285 51.839 33.3986 51.4941 34.3422 51.4941C36.1045 51.4924 37.0065 52.3958 37.0065 53.9337Z" fill="white"/>
<path d="M43.8127 51.6313H45.7346V58.4086C45.7346 60.9601 44.3261 62.0015 42.092 62.0015C40.0799 62.0015 38.9837 61.1601 38.498 59.8567L40.1007 59.2016C40.5031 60.105 41.086 60.5257 42.0226 60.5257C43.2854 60.5257 43.8127 59.774 43.8127 58.5534V57.4224C43.4172 58.0017 42.5985 58.4086 41.6271 58.4086C39.8648 58.4086 38.4147 57.0431 38.4147 54.9329C38.4147 52.8227 39.8648 51.4917 41.648 51.4917C42.6401 51.4917 43.4172 51.9055 43.8127 52.5123V51.6313ZM43.9306 54.9346C43.9306 53.8174 43.1674 52.9968 42.0989 52.9968C41.0374 52.9968 40.2672 53.8174 40.2672 54.9346C40.2672 56.0518 41.0443 56.8724 42.0989 56.8724C43.1605 56.8724 43.9306 56.0518 43.9306 54.9346Z" fill="white"/>
<path d="M56.2678 51.6299H58.1897V58.4071C58.1897 60.9586 56.7813 62 54.5471 62C52.5351 62 51.4388 61.1586 50.9531 59.8553L52.5559 59.2001C52.9583 60.1035 53.5411 60.5242 54.4778 60.5242C55.7405 60.5242 56.2678 59.7725 56.2678 58.5519V57.4209C55.8724 58.0002 55.0536 58.4071 54.0823 58.4071C52.32 58.4071 50.8699 57.0416 50.8699 54.9314C50.8699 52.8212 52.32 51.4902 54.1031 51.4902C55.0953 51.4902 55.8724 51.904 56.2678 52.5109V51.6299ZM56.3858 54.9331C56.3858 53.816 55.6226 52.9953 54.5541 52.9953C53.4925 52.9953 52.7224 53.816 52.7224 54.9331C52.7224 56.0503 53.4995 56.871 54.5541 56.871C55.6156 56.871 56.3858 56.0503 56.3858 54.9331Z" fill="white"/>
<path d="M59.5642 55.0989C59.5642 52.8645 61.1461 51.4991 63.4011 51.4922C65.656 51.4991 67.2379 52.8645 67.2379 55.0989C67.2379 57.3401 65.656 58.7125 63.4011 58.7194C61.1461 58.7125 59.5642 57.3401 59.5642 55.0989ZM65.316 55.0989C65.316 53.8645 64.5597 53.0093 63.4011 53.0093C62.2493 53.0093 61.4861 53.8645 61.4861 55.0989C61.4861 56.3402 62.2493 57.2022 63.4011 57.2022C64.5597 57.2022 65.316 56.3402 65.316 55.0989Z" fill="white"/>
<path d="M68.2845 55.0989C68.2845 52.8645 69.8665 51.4991 72.1214 51.4922C74.3763 51.4991 75.9582 52.8645 75.9582 55.0989C75.9582 57.3401 74.3763 58.7125 72.1214 58.7194C69.8665 58.7125 68.2845 57.3401 68.2845 55.0989ZM74.0363 55.0989C74.0363 53.8645 73.2801 53.0093 72.1214 53.0093C70.9696 53.0093 70.2064 53.8645 70.2064 55.0989C70.2064 56.3402 70.9696 57.2022 72.1214 57.2022C73.2801 57.2022 74.0363 56.3402 74.0363 55.0989Z" fill="white"/>
<path d="M82.6125 48.2383H84.5344V58.5808H82.6125V57.7533C82.1963 58.3877 81.3637 58.7187 80.4201 58.7187C78.5398 58.7187 77.0203 57.3809 77.0203 55.1189C77.0203 52.857 78.5398 51.4916 80.4201 51.4916C81.3637 51.4916 82.1963 51.8433 82.6125 52.4777V48.2383ZM82.6958 55.1189C82.6958 53.8569 81.8979 53.0708 80.8225 53.0708C79.754 53.0708 78.9422 53.8569 78.9422 55.1189C78.9422 56.3809 79.754 57.1395 80.8225 57.1395C81.8979 57.1395 82.6958 56.3809 82.6958 55.1189Z" fill="white"/>
<path d="M91.6218 25.4107L102.366 21.9298C101.703 20.2299 100.907 18.5955 99.9928 17.0404L89.9168 22.1315C90.5689 23.1728 91.1413 24.2676 91.6218 25.4107ZM86.8275 18.2093L95.4032 10.9149C94.1838 9.61671 92.8672 8.4116 91.4588 7.31339L84.1198 15.8388C85.0825 16.5594 85.988 17.3525 86.8275 18.2093ZM85.0496 3.35326C83.4694 2.60158 81.8215 1.96541 80.1199 1.45682L76.6248 12.1148C77.7679 12.4441 78.8745 12.8579 79.9378 13.3493L85.0496 3.35326ZM104.348 29.4915L93.0754 30.3621C93.2905 31.5982 93.4067 32.8671 93.4171 34.1619L104.683 35.0325C104.688 34.8015 104.692 34.5722 104.692 34.3395C104.693 32.6947 104.574 31.0759 104.348 29.4915ZM70.1427 11.2045C70.7342 11.2045 71.3188 11.227 71.8981 11.2701L72.7723 0.0982704C71.9051 0.0327568 71.0274 0 70.1427 0C69.2581 0 68.3804 0.0327568 67.5131 0.0982704L68.3874 11.2701C68.965 11.227 69.5513 11.2045 70.1427 11.2045ZM47.2084 30.3638L35.9354 29.4932C35.71 31.0776 35.5903 32.6965 35.5903 34.3429C35.5903 34.5739 35.5937 34.805 35.5989 35.036L46.8649 34.1653C46.8753 32.8689 46.9915 31.5982 47.2084 30.3638ZM50.367 22.1315L40.2927 17.0404C39.3768 18.5972 38.5824 20.2299 37.9198 21.9298L48.6637 25.4107C49.1441 24.2676 49.7148 23.1728 50.367 22.1315ZM55.2342 3.35326L60.3459 13.3475C61.4092 12.8562 62.5159 12.4424 63.659 12.1131L60.1638 1.45682C58.4622 1.96541 56.8144 2.60158 55.2342 3.35326ZM56.1639 15.8388L48.825 7.31339C47.4182 8.4116 46.1 9.61671 44.8806 10.9149L53.4563 18.2093C54.2958 17.3525 55.2012 16.5594 56.1639 15.8388Z" fill="#FFEE00"/>
<path d="M70.1434 40.1903C90.8332 40.1903 109.839 42.5436 124.782 46.4744C111.868 39.4921 92.1897 35.0337 70.1434 35.0337C48.0971 35.0337 28.4185 39.4938 15.5047 46.4744C30.4479 42.5436 49.4535 40.1903 70.1434 40.1903Z" fill="#3666B1"/>
<path d="M88.5317 49.45C88.5317 48.8431 89.0382 48.3535 89.6557 48.3535C90.2523 48.3535 90.7588 48.8431 90.7588 49.45C90.7588 50.0638 90.2523 50.5603 89.6557 50.5603C89.0382 50.5603 88.5317 50.0638 88.5317 49.45ZM88.6913 58.5805V51.6309H90.6131V58.5805H88.6913Z" fill="white"/>
<path d="M98.4163 53.9317V58.5797H96.4944V54.3248C96.4944 53.4007 95.9186 53.0076 95.1484 53.0076C94.3505 53.0076 93.6428 53.4145 93.5388 54.5317V58.5797H91.6186V51.6301H93.5405V52.4163C94.04 51.837 94.8102 51.4922 95.7538 51.4922C97.5144 51.4905 98.4163 52.3939 98.4163 53.9317Z" fill="white"/>
<path d="M99.0435 56.7535L100.639 56.319C100.827 56.9397 101.305 57.2638 102.18 57.2638C102.894 57.2638 103.227 57.0431 103.227 56.6431C103.227 56.1121 102.721 55.9121 101.701 55.719C100.209 55.4294 99.21 54.9398 99.21 53.6226C99.21 52.2848 100.278 51.4917 102.027 51.4917C103.567 51.4917 104.636 52.1055 104.976 53.1882L103.262 53.6502C103.054 53.1675 102.61 52.9054 101.964 52.9054C101.333 52.9054 100.958 53.1192 100.958 53.5054C100.958 53.9329 101.645 54.0984 102.471 54.2709C104.088 54.6226 105.08 55.0432 105.08 56.4569C105.08 57.8431 103.99 58.7189 102.242 58.7189C100.459 58.7189 99.2724 57.9672 99.0435 56.7535Z" fill="white"/>
<path d="M108.692 58.5812C107.326 58.5812 106.541 57.7744 106.541 56.3882V53.0919H105.168V51.6299H105.709C106.347 51.6299 106.77 51.3816 106.77 50.3886V49.3955H108.463V51.6299H109.976V53.0919H108.463V56.1124C108.463 56.7675 108.81 57.064 109.358 57.064H109.976V58.5812H108.692Z" fill="white"/>
<path d="M110.505 49.45C110.505 48.8431 111.012 48.3535 111.629 48.3535C112.226 48.3535 112.733 48.8431 112.733 49.45C112.733 50.0638 112.226 50.5603 111.629 50.5603C111.012 50.5603 110.505 50.0638 110.505 49.45ZM110.665 58.5805V51.6309H112.587V58.5805H110.665Z" fill="white"/>
<path d="M116.525 58.5812C115.159 58.5812 114.375 57.7744 114.375 56.3882V53.0919H113.001V51.6299H113.542C114.18 51.6299 114.604 51.3816 114.604 50.3886V49.3955H116.297V51.6299H117.809V53.0919H116.297V56.1124C116.297 56.7675 116.643 57.064 117.192 57.064H117.809V58.5812H116.525Z" fill="white"/>
<path d="M123.318 51.6292H125.24V58.5788H123.318V57.7788C122.818 58.3719 122.048 58.7167 121.091 58.7167C119.328 58.7167 118.433 57.8133 118.433 56.2686V51.6274H120.355V55.8755C120.355 56.7996 120.931 57.1858 121.694 57.1858C122.555 57.1858 123.311 56.7306 123.318 55.3996V51.6292Z" fill="white"/>
<path d="M129.209 58.5812C127.843 58.5812 127.059 57.7744 127.059 56.3882V53.0919H125.685V51.6299H126.226C126.864 51.6299 127.287 51.3816 127.287 50.3886V49.3955H128.98V51.6299H130.493V53.0919H128.98V56.1124C128.98 56.7675 129.327 57.064 129.875 57.064H130.493V58.5812H129.209Z" fill="white"/>
<path d="M137.978 55.4846H132.665C132.756 56.6087 133.526 57.2224 134.518 57.2224C135.253 57.2224 135.809 56.8914 136.079 56.2569L137.855 56.4983C137.397 57.9189 136.128 58.7189 134.525 58.7189C132.228 58.7189 130.764 57.3534 130.764 55.1053C130.764 52.8571 132.27 51.4917 134.462 51.4917C136.482 51.4917 137.987 52.6365 138.001 55.0432L137.978 55.4846ZM132.74 54.1743H136.077C135.918 53.3744 135.286 52.9054 134.475 52.9054C133.566 52.9054 132.955 53.3261 132.74 54.1743Z" fill="white"/>
</g>
<defs>
<clipPath id="clip0_2_31">
<rect width="138" height="62" fill="white"/>
</clipPath>
</defs>
</svg>
