<svg width="33" height="27" viewBox="0 0 33 27" fill="none" xmlns="http://www.w3.org/2000/svg">
<path d="M0.164391 17.868C0.164391 23.552 3.52839 26.684 7.35639 26.684C10.8364 26.684 13.5044 23.9 13.5044 20.536C13.5044 17.056 11.1844 14.62 7.93639 14.62C7.35639 14.62 6.54439 14.736 6.42839 14.736C6.77639 11.024 10.1404 6.38399 13.8524 3.948L9.56039 0.467995C4.22439 4.29599 0.164391 10.792 0.164391 17.868ZM18.7244 17.868C18.7244 23.552 22.0884 26.684 25.9164 26.684C29.3964 26.684 32.1804 23.9 32.1804 20.536C32.1804 17.056 29.7444 14.62 26.4964 14.62C25.9164 14.62 25.1044 14.736 24.9884 14.736C25.4524 11.024 28.7004 6.38399 32.4124 3.948L28.1204 0.467995C22.7844 4.29599 18.7244 10.792 18.7244 17.868Z" fill="#FFEE00"/>
</svg>
