<svg width="30" height="29" viewBox="0 0 30 29" fill="none" xmlns="http://www.w3.org/2000/svg">
<path d="M7.88191 10.0069C9.52868 10.0069 10.8685 8.66705 10.8685 7.02027C10.8685 5.37327 9.52868 4.03369 7.88191 4.03369C6.23491 4.03369 4.89532 5.3735 4.89532 7.02027C4.89532 8.66705 6.23491 10.0069 7.88191 10.0069Z" fill="#FFEE00"/>
<path d="M20.3949 10.29C19.1435 10.29 17.9358 10.7253 16.9695 11.4945V11.1393C16.9695 10.8266 16.7158 10.5731 16.4033 10.5731H12.4542C12.1415 10.5731 11.8881 10.8266 11.8881 11.1393V24.3878C11.8881 24.7006 12.1415 24.954 12.4542 24.954H16.6156C16.9281 24.954 17.1818 24.7006 17.1818 24.3878V16.7409C17.1818 15.7965 17.9501 15.0282 18.8945 15.0282C19.8389 15.0282 20.6072 15.7965 20.6072 16.7409V24.3878C20.6072 24.7006 20.8606 24.954 21.1734 24.954H25.3348C25.6473 24.954 25.9009 24.7006 25.9009 24.3878V15.7961C25.9009 12.76 23.4308 10.29 20.3949 10.29Z" fill="#FFEE00"/>
<path d="M5.80202 10.5737C5.48929 10.5737 5.23584 10.8272 5.23584 11.1399V24.3884C5.23584 24.7012 5.48929 24.9546 5.80202 24.9546H9.96341C10.2759 24.9546 10.5296 24.7012 10.5296 24.3884V11.1399C10.5296 10.8272 10.2759 10.5737 9.96341 10.5737H5.80202Z" fill="#FFEE00"/>
</svg>
