<svg width="14" height="14" viewBox="0 0 14 14" fill="none" xmlns="http://www.w3.org/2000/svg">
<g clip-path="url(#clip0_2_255)">
<path d="M13.6194 10.2746L11.6656 8.32085C10.9679 7.62308 9.78166 7.90222 9.50255 8.80928C9.29322 9.4373 8.59546 9.78618 7.96747 9.6466C6.57194 9.29772 4.68797 7.48353 4.33909 6.01822C4.12976 5.39021 4.54842 4.69244 5.17641 4.48314C6.0835 4.20403 6.36261 3.01783 5.66484 2.32007L3.7111 0.366327C3.15289 -0.122109 2.31557 -0.122109 1.82714 0.366327L0.501383 1.69208C-0.82437 3.08761 0.640937 6.78576 3.92043 10.0653C7.19993 13.3448 10.8981 14.8799 12.2936 13.4843L13.6194 12.1586C14.1078 11.6003 14.1078 10.763 13.6194 10.2746Z" fill="#C5C5C5"/>
</g>
<defs>
<clipPath id="clip0_2_255">
<rect width="14" height="14" fill="white"/>
</clipPath>
</defs>
</svg>
