<svg width="25" height="21" viewBox="0 0 25 21" fill="none" xmlns="http://www.w3.org/2000/svg">
<path d="M24.9981 3.63687C23.4596 3.70778 23.4932 3.70199 23.3192 3.71655L24.2304 1.11433C24.2304 1.11433 21.3862 2.16063 20.6651 2.34779C18.7715 0.645758 15.9567 0.570556 13.9443 1.80738C12.2964 2.82046 11.4119 4.56019 11.7069 6.59364C8.49973 6.14858 5.79749 4.6283 3.66402 2.06546L2.98926 1.25503L2.48505 2.18097C1.84779 3.35099 1.63618 4.68876 1.88903 5.94779C1.99278 6.46432 2.16912 6.95696 2.41339 7.41825L1.83454 7.19395L1.76587 8.16113C1.69626 9.14361 2.02338 10.2905 2.64105 11.2287C2.81497 11.493 3.03889 11.7832 3.32272 12.0694L3.02359 12.0235L3.38859 13.1318C3.86836 14.5878 4.86483 15.7144 6.15801 16.3406C4.86651 16.8887 3.8232 17.2384 2.10829 17.8025L0.539307 18.3183L1.98849 19.1106C2.54103 19.4127 4.49349 20.4217 6.42262 20.7244C10.7108 21.3969 15.5389 20.8492 18.7892 17.9219C21.5269 15.4563 22.4252 11.949 22.2386 8.29922C22.2104 7.74668 22.3618 7.21933 22.6648 6.81458C23.2718 6.00415 24.9944 3.64228 24.9981 3.63687Z" fill="#FFEE00"/>
</svg>
