<svg width="28" height="28" viewBox="0 0 28 28" fill="none" xmlns="http://www.w3.org/2000/svg">
<path d="M26.5706 7.43938C26.2681 6.31481 25.3814 5.42833 24.257 5.12552C22.2029 4.56348 13.9861 4.56348 13.9861 4.56348C13.9861 4.56348 5.76971 4.56348 3.71556 5.10421C2.61278 5.4067 1.70451 6.31497 1.40202 7.43938C0.86145 9.49336 0.86145 13.7531 0.86145 13.7531C0.86145 13.7531 0.86145 18.0342 1.40202 20.0667C1.70483 21.1911 2.59116 22.0776 3.71572 22.3804C5.79134 22.9426 13.9864 22.9426 13.9864 22.9426C13.9864 22.9426 22.2029 22.9426 24.257 22.4019C25.3816 22.0993 26.2681 21.2128 26.5709 20.0884C27.1113 18.0342 27.1113 13.7747 27.1113 13.7747C27.1113 13.7747 27.1329 9.49336 26.5706 7.43938ZM11.3701 17.6883V9.8178L18.2027 13.7531L11.3701 17.6883Z" fill="#FFEE00"/>
</svg>
